<?xml version="1.0" encoding="UTF-8" standalone="no"?>
<!-- Created with Inkscape (http://www.inkscape.org/) -->

<svg
   xmlns:dc="http://purl.org/dc/elements/1.1/"
   xmlns:cc="http://creativecommons.org/ns#"
   xmlns:rdf="http://www.w3.org/1999/02/22-rdf-syntax-ns#"
   xmlns:svg="http://www.w3.org/2000/svg"
   xmlns="http://www.w3.org/2000/svg"
   xmlns:sodipodi="http://sodipodi.sourceforge.net/DTD/sodipodi-0.dtd"
   xmlns:inkscape="http://www.inkscape.org/namespaces/inkscape"
   width="703.28802"
   height="308.12582"
   id="svg5415"
   version="1.1"
   inkscape:version="0.48.5 r10040"
   sodipodi:docname="temp_car.svg">
  <defs
     id="defs5417" />
  <sodipodi:namedview
     id="base"
     pagecolor="#ffffff"
     bordercolor="#666666"
     borderopacity="1.0"
     inkscape:pageopacity="0.0"
     inkscape:pageshadow="2"
     inkscape:zoom="0.98994949"
     inkscape:cx="381.28006"
     inkscape:cy="180.17101"
     inkscape:document-units="px"
     inkscape:current-layer="layer1"
     showgrid="false"
     inkscape:window-width="1366"
     inkscape:window-height="716"
     inkscape:window-x="0"
     inkscape:window-y="26"
     inkscape:window-maximized="1"
     fit-margin-top="0"
     fit-margin-left="0"
     fit-margin-right="0"
     fit-margin-bottom="0" />
  <metadata
     id="metadata5420">
    <rdf:RDF>
      <cc:Work
         rdf:about="">
        <dc:format>image/svg+xml</dc:format>
        <dc:type
           rdf:resource="http://purl.org/dc/dcmitype/StillImage" />
        <dc:title></dc:title>
      </cc:Work>
    </rdf:RDF>
  </metadata>
  <g
     inkscape:label="Layer 1"
     inkscape:groupmode="layer"
     id="layer1"
     transform="translate(-2.0499609,-2.2557777)">
    <path
       inkscape:connector-curvature="0"
       d="m 657.33938,158.54534 c -42.81875,-16.38124 -136.215,-26.15124 -136.215,-26.15124 -8.045,4.0225 -20.9775,0.2875 -20.9775,0.2875 -39.94625,-37.071265 -103.455,-60.061265 -103.455,-60.061265 l 4.88375,-3.16125 c -20.11625,-10.91875 -78.4525,-13.79375 -131.32875,-13.21875 -31.60125,0.34375 -86.73125,4.2875 -126.505,7.405 0,0 -3.03125,-1.9425 -7.46,-1.9425 -4.4275,0 -42.579993,-59.2712496 -42.579993,-59.2712496 0,0 -2.69,-0.85125 -1.515,1.1925 1.17375,2.04375 40.919993,55.7674996 36.972493,61.1812496 l -0.1775,0.0138 -0.39875,0.0325 10e-4,0 c -18.80375,1.51625 -31.636243,2.62 -32.423743,2.62 -2.44625,0 -22.1625,0 -23.69125,0.915 -1.52875,0.9175 -0.305,5.80875 -0.305,5.80875 l 2.75,3.0575 17.2725,0 -6.57125,57.776265 -30.87625,-1.37625 c 0,0 -14.3675,11.77 -21.55,16.2025 -7.18375,4.43249 -20.11875,20.08499 -20.11875,20.08499 l 2.235,10.17875 c -2.2925,0.76375 -4.47125,11.88375 -4.47125,11.88375 l 42.73375,19.99375 c 27.875,-37.0725 54.313743,-28.45 54.313743,-28.45 72.9925,1.15 80.75125,81.90125 80.75125,81.90125 l 314.96125,1.4375 c 2.3,-41.9575 22.99125,-73.28125 60.6375,-85.35 37.645,-12.07125 70.98,22.98875 70.98,22.98875 l 61.785,-1.43625 0,-7.7575 c 0,0 -9.48375,-26.1525 -39.6575,-36.785"
       style="fill:#5699b4;fill-opacity:1;fill-rule:nonzero;stroke:none"
       id="path2346" />
    <path
       inkscape:connector-curvature="0"
       d="m 401.57563,69.459085 c 0,0 66.35375,22.99375 119.54875,62.935015 l -2.045,3.015 -20.565,0 c 0,0 -72.65125,-52.538765 -103.5775,-60.645015 l 1.755,-2.14375 4.88375,-3.16125"
       style="fill:#e9e9e9;fill-opacity:1;fill-rule:nonzero;stroke:none"
       id="path2352" />
    <path
       inkscape:connector-curvature="0"
       d="m 699.65938,242.25034 4.2575,3.9175 -1.1925,5.4475 c 0,0 0.68125,7.49125 -0.93625,8.1725 -1.6175,0.68125 -5.705,7.4925 -5.705,7.4925 l -53.295,6.64 c 0,0 6.98,-57.72125 -21.79625,-74.74875 -28.77625,-17.0275 -65.21375,-22.13625 -90.58375,8.00125 -25.37125,30.14 -20.77375,68.28 -20.77375,68.28 l -331.34625,-1.67 c 0,0 2.87375,-51.7275 -23.565,-68.1075 -26.43875,-16.38 -56.324995,-25.28875 -88.511243,0.575 -32.185,25.86375 -21.5525,57.47375 -21.5525,57.47375 0,0 -26.15125,-0.86125 -37.9337505,-18.67875 0,0 -4.02375,-6.3225 -2.87375,-22.99 0,0 -1.9725,-0.62875 -1.79,-2.8825 0.1825,-2.255 3.71625,-24.6725 3.71625,-24.6725 0,0 3.0462504,-2.315 5.0562505,-2.4975 2.01,-0.18375 29.225,3.61375 48.7675,1.0275 0,0 22.84625,-22.8475 55.606243,-19.97375 32.76125,2.875 51.1525,22.70375 62.6475,36.78625 11.495,14.08125 15.6625,46.84125 15.6625,46.84125 l 305.90875,4.885 c 0,0 -3.59125,-43.68 29.6,-73.56875 33.19125,-29.88625 78.0225,-15.5175 90.95375,-7.3275 12.93125,8.19 19.255,15.375 19.255,15.375 0,0 49.57125,3.73625 53.45,3.73625 3.88,0 4.31125,-4.45375 4.31125,-4.45375 0,0 4.88625,0.86125 4.45375,10.91875 0,0 2.05875,-0.2875 3.04125,2.0125 0.9825,2.29875 0.83875,12.78875 0.83875,12.78875 l -3.16125,3.16 c 0,0 0.72625,15.67625 -2.51,18.04"
       style="fill:#a0522d;fill-opacity:1;fill-rule:nonzero;stroke:none"
       id="path2354" />
    <path
       inkscape:connector-curvature="0"
       d="m 54.739387,133.65285 20.175,-56.400015 17.2725,0 -6.57125,57.776265 -30.87625,-1.37625"
       style="fill:#e9e9e9;fill-opacity:1;fill-rule:nonzero;stroke:none"
       id="path2356" />
    <path
       inkscape:connector-curvature="0"
       d="m 103.85688,130.95785 c -1.63125,-2.08625 47.705,-62.072515 149.435,-64.085015 l 2.875,72.706265 c 0,0 -147.13625,-2.01125 -152.31,-8.62125"
       style="fill:#e9e9e9;fill-opacity:1;fill-rule:nonzero;stroke:none"
       id="path2358" />
    <path
       inkscape:connector-curvature="0"
       d="m 269.67313,139.5791 -9.77125,-72.706265 c 0,0 94.26,-4.0225 134.78,11.2075 40.51875,15.23125 58.91,32.186265 58.91,32.186265 l 1.435,12.37375 c 0,0 -2.32875,-0.49375 -3.4975,1.9075 -1.17,2.40125 -2.21875,14.1625 -1.54,15.82375 0.67625,1.6625 7.73,5.485 7.73,5.485 l 0.47125,4.06875 -188.5175,-10.34625"
       style="fill:#e9e9e9;fill-opacity:1;fill-rule:nonzero;stroke:none"
       id="path2360" />
    <path
       inkscape:connector-curvature="0"
       d="m 267.93063,161.92909 c 0,0 -2.9825,0.745 -2.9075,3.355 0.0737,2.60875 2.46,3.28125 2.46,3.28125 l 36.095,0.52125 c 0,0 3.805,-0.52125 3.73125,-2.38625 -0.075,-1.86375 -4.40125,-2.8325 -4.40125,-2.8325 l -34.9775,-1.93875"
       style="fill:#ddead9;fill-opacity:1;fill-rule:nonzero;stroke:none"
       id="path2362" />
    <path
       inkscape:connector-curvature="0"
       d="m 85.213137,141.0216 -4.4275,28.91874 c 0,0 -53.50125,-0.50875 -62.35625,7.73375 l 0,-6.52 c 0,0 19.92375,-23.61249 48.4575,-30.62374 l 18.32625,0.49125"
       style="fill:#db2f34;fill-opacity:1;fill-rule:nonzero;stroke:none"
       id="path2364" />
    <path
       inkscape:connector-curvature="0"
       d="m 653.35938,166.57909 c 0,0 20.3125,3.065 23.815,5.25375 3.5025,2.18875 16.0225,19.43625 16.0225,19.43625 l -61.9,-5.60375 c 0,0 18.0375,-18.03625 22.0625,-19.08625"
       style="fill:#e7e88c;fill-opacity:1;fill-rule:nonzero;stroke:none"
       id="path2366" />
    <path
       inkscape:connector-curvature="0"
       d="m 170.29063,253.54784 c 0,31.3875 -25.445,56.83375 -56.83375,56.83375 -31.388743,0 -56.834993,-25.44625 -56.834993,-56.83375 0,-31.38875 25.44625,-56.835 56.834993,-56.835 31.38875,0 56.83375,25.44625 56.83375,56.835"
       style="fill:#2c292a;fill-opacity:1;fill-rule:nonzero;stroke:none"
       id="path2368" />
    <path
       inkscape:connector-curvature="0"
       d="m 153.92938,253.54784 c 0,22.3525 -18.12,40.4725 -40.4725,40.4725 -22.352493,0 -40.472493,-18.12 -40.472493,-40.4725 0,-22.35375 18.12,-40.47375 40.472493,-40.47375 22.3525,0 40.4725,18.12 40.4725,40.47375"
       style="fill:#657b84;fill-opacity:1;fill-rule:nonzero;stroke:none"
       id="path2370" />
    <path
       inkscape:connector-curvature="0"
       d="m 155.46188,248.94159 -30.89,0 21.8425,-21.84 -6.5125,-6.51125 -21.84125,21.84 0,-30.8875 -9.20875,0 0,30.8875 -21.841243,-21.84 -6.51125,6.51125 21.841243,21.84 -30.888743,0 0,9.21 30.888743,0 -21.841243,21.84125 6.51125,6.51125 21.841243,-21.84125 0,30.8875 9.20875,0 0,-30.8875 21.84125,21.84125 6.5125,-6.51125 -21.8425,-21.84125 30.89,0 0,-9.21"
       style="fill:#2c292a;fill-opacity:1;fill-rule:nonzero;stroke:none"
       id="path2372" />
    <path
       inkscape:connector-curvature="0"
       d="m 632.77438,253.54784 c 0,31.3875 -25.445,56.83375 -56.83375,56.83375 -31.3875,0 -56.835,-25.44625 -56.835,-56.83375 0,-31.38875 25.4475,-56.835 56.835,-56.835 31.38875,0 56.83375,25.44625 56.83375,56.835"
       style="fill:#2c292a;fill-opacity:1;fill-rule:nonzero;stroke:none"
       id="path2374" />
    <path
       inkscape:connector-curvature="0"
       d="m 616.41313,253.54784 c 0,22.3525 -18.12,40.4725 -40.4725,40.4725 -22.35375,0 -40.47375,-18.12 -40.47375,-40.4725 0,-22.35375 18.12,-40.47375 40.47375,-40.47375 22.3525,0 40.4725,18.12 40.4725,40.47375"
       style="fill:#657b84;fill-opacity:1;fill-rule:nonzero;stroke:none"
       id="path2376" />
    <path
       inkscape:connector-curvature="0"
       d="m 617.94438,248.94159 -30.8875,0 21.84125,-21.84 -6.5125,-6.51125 -21.84,21.84 0,-30.8875 -9.21125,0 0,30.8875 -21.83875,-21.84 -6.51125,6.51125 21.84,21.84 -30.88875,0 0,9.21 30.8875,0 -21.84,21.84125 6.5125,6.51125 21.83875,-21.84125 0,30.8875 9.21125,0 0,-30.8875 21.84,21.84125 6.5125,-6.51125 -21.84125,-21.84125 30.8875,0 0,-9.21"
       style="fill:#2c292a;fill-opacity:1;fill-rule:nonzero;stroke:none"
       id="path2378" />
    <path
       inkscape:connector-curvature="0"
       d="m 184.28188,203.88284 c -1.22,-3.365 307.94875,6.525 307.94875,6.525 0,0 0.545,11.5275 -8.155,12.28875 -8.70125,0.7625 -272.4375,-7.1225 -272.4375,-7.1225 0,0 -22.62875,1.36125 -27.35625,-11.69125"
       style="fill:#a0522d;fill-opacity:1;fill-rule:nonzero;stroke:none"
       id="path2380" />
  </g>
</svg>
